<svg id="Capa_1" enable-background="new 0 0 512 512" height="512" viewBox="0 0 512 512" width="512" xmlns="http://www.w3.org/2000/svg" xmlns:xlink="http://www.w3.org/1999/xlink"><linearGradient id="SVGID_1_" gradientTransform="matrix(0 -1 -1 0 494.4 -3194.99)" gradientUnits="userSpaceOnUse" x1="-3191.373" x2="-3675.829" y1="-417.861" y2="936.535"><stop offset="0" stop-color="#ffd9d9" stop-opacity="0"/><stop offset=".9981" stop-color="#ffb3b3"/></linearGradient><g><g><g><path d="m180.252.001c-100.63.534-151.151 173.599-170.006 262.559-18.855 88.961.847 271.458 147.096 247.249 23.64-3.913 29.158-4.715 48.645-14.497 34.685-17.411 75.734-29.661 112.83-33.359 15.211-1.516 34.445-6.538 44.624-8.368 81.626-14.679 164.928-93.76 139.709-176.622-18.939-62.228-74.428-87.278-129.998-83.834-30.518 1.891-62.997-16.011-69.51-35.788-21.214-64.417-45.612-157.752-123.39-157.34z" fill="url(#SVGID_1_)"/></g><g><path d="m433.185 181.671h-362.08c-8.29 0-15 6.71-15 15v203.94c0 8.29 6.71 15 15 15h126.18v23.5c0 4.02 4.5 6.39 7.82 4.13l13.31-9.07 13.31 9.07c3.32 2.26 7.82-.11 7.82-4.13v-23.5h193.64c8.29 0 15-6.71 15-15v-203.94c0-8.29-6.71-15-15-15z" fill="#2626bc" opacity=".1"/><g><g><path d="m448.185 169.671v203.94c0 8.29-6.71 15-15 15h-362.08c-8.29 0-15-6.71-15-15v-203.94c0-8.29 6.71-15 15-15h362.08c8.29 0 15 6.71 15 15z" fill="#ff9d33"/><path d="m415.146 154.671v210.18c0 5.52-4.48 10-10 10h-143c-2.76 0-5.26-1.12-7.07-2.93s-2.93-4.31-2.93-7.07c0 5.52-4.48 10-10 10h-143c-5.52 0-10-4.48-10-10v-210.18z" fill="#ff7300"/><g><path d="m448.19 169.67v172.55h-392.09v-172.55c0-8.29 6.72-15 15-15h362.09c8.28 0 15 6.71 15 15z" fill="#ff6c6c"/></g><path d="m448.19 169.67v79.4c-12.42 10.3-28.37 16.49-45.77 16.49-39.64 0-71.77-32.13-71.77-71.76 0-14.44 4.26-27.88 11.6-39.13h90.94c8.28 0 15 6.71 15 15z" fill="#ff4d4d"/><g><path d="m239.545 350.491v61.62c0 4.02-4.5 6.39-7.82 4.13l-13.31-9.07-13.31 9.07c-3.32 2.26-7.82-.11-7.82-4.13v-61.62z" fill="#ff6c6c"/><path d="m197.285 350.491h42.26v24.36h-42.26z" fill="#ff4d4d"/></g></g><g><path d="m252.145 157.881v189.42c0 5.52-4.48 10-10 10h-143c-5.52 0-10-4.48-10-10v-204.42c0-5.52 4.48-10 10-10h128c13.81 0 25 11.19 25 25z" fill="#fff"/><path d="m415.141 142.88v204.42c0 5.52-4.47 10-10 10h-143c-5.52 0-10-4.48-10-10v-189.42c0-13.8 11.2-25 25-25h128c5.53 0 10 4.48 10 10z" fill="#fff"/><path d="m415.141 142.88v121.56c-4.12.73-8.38 1.12-12.72 1.12-39.64 0-71.77-32.13-71.77-71.76 0-25.7 13.51-48.25 33.82-60.92h40.67c5.53 0 10 4.48 10 10z" fill="#f7f3ff"/><path d="m389.771 247.05v18.77c0 2.76-2.23 5-5 5h-106.57c-2.76 0-5-2.24-5-5v-18.77c0-2.76 2.24-5 5-5h106.57c2.769 0 5 2.24 5 5z" fill="#ff6c6c"/></g></g><path d="m143 69.667c-1.28 0-2.559-.488-3.536-1.464l-4.464-4.465-4.464 4.464c-1.953 1.952-5.118 1.952-7.071 0-1.953-1.953-1.953-5.119 0-7.071l8-8c1.953-1.952 5.118-1.952 7.071 0l8 8c1.953 1.953 1.953 5.119 0 7.071-.977.976-2.256 1.465-3.536 1.465z" fill="#8383ff"/><path d="m178.082 103.666c-1.28 0-2.559-.488-3.536-1.464l-4.464-4.464-4.464 4.464c-1.953 1.952-5.118 1.952-7.071 0-1.953-1.953-1.953-5.119 0-7.071l8-8c1.953-1.952 5.118-1.952 7.071 0l8 8c1.953 1.953 1.953 5.119 0 7.071-.977.975-2.257 1.464-3.536 1.464z" fill="#ff9d33"/><path d="m397.775 446.333h-3v-3c0-2.761-2.239-5-5-5s-5 2.239-5 5v3h-3c-2.761 0-5 2.239-5 5s2.239 5 5 5h3v3c0 2.761 2.239 5 5 5s5-2.239 5-5v-3h3c2.761 0 5-2.239 5-5s-2.24-5-5-5z" fill="#8383ff"/><path d="m213.285 55.667h-3v-3c0-2.761-2.239-5-5-5s-5 2.239-5 5v3h-3c-2.761 0-5 2.239-5 5s2.239 5 5 5h3v3c0 2.761 2.239 5 5 5s5-2.239 5-5v-3h3c2.761 0 5-2.239 5-5s-2.239-5-5-5z" fill="#ff6c6c"/><path d="m178.645 454.333h-3v-3c0-2.761-2.239-5-5-5s-5 2.239-5 5v3h-3c-2.761 0-5 2.239-5 5s2.239 5 5 5h3v3c0 2.761 2.239 5 5 5s5-2.239 5-5v-3h3c2.761 0 5-2.239 5-5s-2.239-5-5-5z" fill="#ff6c6c"/><g fill="#ff9d33"><path d="m223.368 329.333h-106.573c-2.761 0-5-2.239-5-5v-18.772c0-2.761 2.239-5 5-5h106.573c2.761 0 5 2.239 5 5v18.772c0 2.762-2.239 5-5 5z"/><path d="m384.775 191.068h-106.574c-2.761 0-5-2.239-5-5v-18.772c0-2.761 2.239-5 5-5h106.573c2.761 0 5 2.239 5 5v18.772c.001 2.761-2.239 5-4.999 5z"/><path d="m389.771 207.17v18.78c0 2.76-2.23 5-5 5h-106.57c-2.76 0-5-2.24-5-5v-18.78c0-2.76 2.24-5 5-5h106.57c2.769 0 5 2.24 5 5z"/></g><path d="m389.771 207.17v18.78c0 2.76-2.23 5-5 5h-43.771c-5.2-8.58-8.65-18.34-9.86-28.78h53.63c2.77 0 5.001 2.24 5.001 5z" fill="#ff7300"/><path d="m389.771 247.05v17.4c-15.93-2.83-30.04-10.92-40.48-22.4h35.48c2.769 0 5 2.24 5 5z" fill="#ff4d4d"/><path d="m384.775 331.833h-106.574c-2.761 0-5-2.239-5-5v-39.907c0-2.761 2.239-5 5-5h106.573c2.761 0 5 2.239 5 5v39.907c.001 2.762-2.239 5-4.999 5z" fill="#8383ff"/><g><g><g><path d="m223.368 168.051h-106.573c-2.762 0-5-2.239-5-5s2.238-5 5-5h106.573c2.762 0 5 2.239 5 5s-2.238 5-5 5z" fill="#8383ff"/></g><g><path d="m223.368 187.553h-106.573c-2.762 0-5-2.239-5-5s2.238-5 5-5h106.573c2.762 0 5 2.239 5 5s-2.238 5-5 5z" fill="#8383ff"/></g><path d="m223.368 207.056h-106.573c-2.762 0-5-2.239-5-5s2.238-5 5-5h106.573c2.762 0 5 2.239 5 5s-2.238 5-5 5z" fill="#8383ff"/><g><path d="m223.368 226.559h-106.573c-2.762 0-5-2.239-5-5s2.238-5 5-5h106.573c2.762 0 5 2.239 5 5s-2.238 5-5 5z" fill="#8383ff"/></g><g><path d="m223.368 246.062h-106.573c-2.762 0-5-2.239-5-5s2.238-5 5-5h106.573c2.762 0 5 2.239 5 5s-2.238 5-5 5z" fill="#8383ff"/></g></g><g><g><path d="m223.368 265.564h-106.573c-2.762 0-5-2.239-5-5s2.238-5 5-5h106.573c2.762 0 5 2.239 5 5s-2.238 5-5 5z" fill="#8383ff"/></g><g><path d="m223.368 285.067h-106.573c-2.762 0-5-2.239-5-5s2.238-5 5-5h106.573c2.762 0 5 2.239 5 5s-2.238 5-5 5z" fill="#8383ff"/></g></g></g><g><circle cx="402.417" cy="176.682" fill="#ff4d4d" r="71.768"/><path d="m359.406 153.732v45.9h-25.01c-2.43-7.21-3.75-14.92-3.75-22.95s1.32-15.74 3.75-22.95z" fill="#fee"/><path d="m252.145 358.449c2.657 2.386 6.157 3.852 10 3.852h142.999c8.271 0 15-6.729 15-15v-95.94c33.808-8.026 59.041-38.452 59.041-74.68 0-42.33-34.438-76.768-76.768-76.768-23.813 0-45.128 10.898-59.22 27.969h-66.051c-10.425 0-19.622 5.348-25 13.443-5.379-8.094-14.575-13.443-25-13.443h-128c-8.271 0-15 6.729-15 15v6.786h-13.045c-11.028 0-20 8.972-20 20v203.944c0 11.028 8.972 20 20 20h121.187v18.498c0 3.716 2.041 7.104 5.326 8.841 1.472.778 3.077 1.163 4.676 1.163 1.97 0 3.933-.584 5.627-1.739l10.498-7.152 10.498 7.152c3.07 2.092 7.02 2.313 10.305.576s5.326-5.125 5.326-8.84v-18.498h188.646c11.028 0 20-8.972 20-20v-109.163c0-2.761-2.239-5-5-5s-5 2.239-5 5v109.163c0 5.514-4.486 10-10 10h-188.647v-21.522c2.895-.469 5.51-1.764 7.602-3.642zm150.272-248.535c36.816 0 66.768 29.952 66.768 66.768s-29.952 66.769-66.768 66.769-66.769-29.952-66.769-66.769c-.001-36.816 29.952-66.768 66.769-66.768zm-145.271 47.969c0-11.028 8.972-20 20-20h59.07c-6.703 11.394-10.567 24.65-10.567 38.799 0 42.331 34.438 76.769 76.769 76.769 2.608 0 5.186-.133 7.728-.389v94.24c0 2.757-2.243 5-5 5h-143c-2.757 0-5-2.243-5-5zm-186.045 225.73c-5.514 0-10-4.486-10-10v-203.944c0-5.514 4.486-10 10-10h13.044v187.632c0 8.271 6.729 15 15 15h29.889c2.761 0 5-2.239 5-5s-2.239-5-5-5h-29.889c-2.757 0-5-2.243-5-5v-204.418c0-2.757 2.243-5 5-5h127.999c11.028 0 20 8.972 20 20v189.418c0 2.757-2.243 5-5 5h-82.51c-2.761 0-5 2.239-5 5s2.239 5 5 5h32.654v21.312zm163.441 28.497-13.313-9.069c-1.698-1.157-3.932-1.157-5.63 0l-13.313 9.069v-49.809h32.26l.022 49.825c.002 0-.007-.003-.026-.016z" fill="#2626bc"/><path d="m390.43 222.74-31.024-23.104v-45.908l31.024-23.104c3.298-2.456 7.986-.102 7.986 4.01v84.095c.001 4.113-4.688 6.467-7.986 4.011z" fill="#ff9494"/><g><path d="m416.085 197.348c-1.43 0-2.849-.61-3.838-1.792-1.771-2.119-1.49-5.272.628-7.043 3.519-2.942 5.536-7.254 5.536-11.831s-2.018-8.889-5.536-11.831c-2.118-1.771-2.399-4.924-.628-7.043s4.924-2.4 7.043-.628c5.796 4.847 9.121 11.956 9.121 19.502s-3.325 14.655-9.121 19.502c-.936.783-2.074 1.164-3.205 1.164z" fill="#fee"/></g><g><path d="m429.421 212.015c-1.43 0-2.849-.61-3.838-1.792-1.771-2.118-1.49-5.271.628-7.043 7.879-6.589 12.397-16.247 12.397-26.498s-4.519-19.909-12.397-26.498c-2.118-1.771-2.399-4.925-.628-7.043 1.771-2.119 4.924-2.4 7.043-.628 10.157 8.494 15.982 20.948 15.982 34.169s-5.825 25.675-15.982 34.169c-.936.783-2.074 1.164-3.205 1.164z" fill="#fee"/></g><path d="m367.245 176.682h-18.828c-2.761 0-5-2.239-5-5v-5.667c0-2.761 2.239-5 5-5h18.828c2.761 0 5 2.239 5 5v5.667c0 2.761-2.24 5-5 5z" fill="#ff4d4d"/></g></g></g></g></svg>